<?xml version="1.0" encoding="UTF-8"?>
<svg version="1.1" xmlns="http://www.w3.org/2000/svg" width="225" height="131">
<path d="M0 0 C74.25 0 148.5 0 225 0 C225 43.23 225 86.46 225 131 C150.75 131 76.5 131 0 131 C0 87.77 0 44.54 0 0 Z " fill="#FEFEFE" transform="translate(0,0)"/>
<path d="M0 0 C2.96515584 1.95276692 4.74726686 3.87216235 6.734375 6.80078125 C6.734375 7.46078125 6.734375 8.12078125 6.734375 8.80078125 C7.89453125 8.71376953 7.89453125 8.71376953 9.078125 8.625 C15.35106715 8.35327602 19.94417451 8.45732214 25.109375 12.234375 C27.81240649 14.83994141 29.2069951 17.36417647 30.734375 20.80078125 C30.734375 21.79078125 30.734375 22.78078125 30.734375 23.80078125 C31.78625 23.90390625 32.838125 24.00703125 33.921875 24.11328125 C37.80597954 24.81369354 39.73281748 25.28596279 42.734375 27.80078125 C46.05604169 32.60959937 47.4843149 36.90839632 46.734375 42.80078125 C45.89179508 45.25629988 44.88081806 47.46012667 43.734375 49.80078125 C43.074375 49.80078125 42.414375 49.80078125 41.734375 49.80078125 C41.734375 50.46078125 41.734375 51.12078125 41.734375 51.80078125 C37.66411866 55.04191531 33.86482478 55.24088921 28.8581543 55.22070312 C28.08023529 55.22917267 27.30231628 55.23764221 26.50082397 55.24636841 C23.93657952 55.26971088 21.3729363 55.27076107 18.80859375 55.26953125 C17.01886253 55.27663574 15.22913358 55.28433517 13.43940735 55.29260254 C9.6894396 55.30604193 5.93968234 55.30761912 2.18969727 55.30175781 C-2.60206228 55.29586963 -7.39280585 55.32641883 -12.18436909 55.36687469 C-15.88115321 55.39280306 -19.5776946 55.39562433 -23.27455711 55.39198303 C-25.04031103 55.39367024 -26.80607664 55.40327418 -28.5717411 55.42112732 C-45.21896811 55.57090224 -45.21896811 55.57090224 -50.86686707 51.20935059 C-56.00180087 46.03839847 -57.58664208 42.06827466 -57.828125 34.67578125 C-57.57446063 28.25190236 -56.47680328 24.85265826 -51.76953125 20.37890625 C-47.9584701 16.9955203 -45.11665239 15.65568244 -40.078125 15.73828125 C-38.1909375 15.76921875 -38.1909375 15.76921875 -36.265625 15.80078125 C-36.1728125 14.56328125 -36.1728125 14.56328125 -36.078125 13.30078125 C-34.72310231 7.46376041 -32.00511531 3.23775151 -27.390625 -0.57421875 C-17.0535872 -5.94947841 -10.0116121 -5.01877446 0 0 Z " fill="#42AAFC" transform="translate(110.265625,22.19921875)"/>
<path d="M0 0 C4.40987612 3.08426206 7.43943134 7.26242929 9.8125 12.0625 C9.8125 13.0525 9.8125 14.0425 9.8125 15.0625 C10.8334375 15.1553125 10.8334375 15.1553125 11.875 15.25 C17.28178038 16.74549245 20.74654032 19.75054962 24.25 24.0625 C27.19570003 29.89014033 26.89319085 37.39855348 25.08203125 43.5390625 C23.15158579 47.74664567 20.78248019 50.55514409 16.8125 53.0625 C16.1525 53.0625 15.4925 53.0625 14.8125 53.0625 C14.65394531 52.47082031 14.49539062 51.87914062 14.33203125 51.26953125 C12.74541094 45.89606026 11.08625437 42.87422687 6.8125 39.0625 C6.8125 38.4025 6.8125 37.7425 6.8125 37.0625 C6.19761719 36.98773438 5.58273438 36.91296875 4.94921875 36.8359375 C2.44494438 36.42854358 0.1884211 35.95931458 -2.1875 35.0625 C-3.9375 32.25 -3.9375 32.25 -5.1875 29.0625 C-6.83490076 27.3767876 -8.49816078 25.7061814 -10.1875 24.0625 C-10.1875 23.4025 -10.1875 22.7425 -10.1875 22.0625 C-14.51524472 20.88220598 -18.45705982 20.00262847 -22.9375 19.75 C-26.40244906 19.42367774 -26.92055626 19.34427395 -29.4375 16.6875 C-30.015 15.82125 -30.5925 14.955 -31.1875 14.0625 C-32.84411761 13.04593919 -34.50861559 12.04184924 -36.1875 11.0625 C-36.1875 10.4025 -36.1875 9.7425 -36.1875 9.0625 C-32.8875 9.0625 -29.5875 9.0625 -26.1875 9.0625 C-25.5275 7.7425 -24.8675 6.4225 -24.1875 5.0625 C-18.20679431 -2.2472514 -8.34625732 -4.6031839 0 0 Z " fill="#42ABFA" transform="translate(146.1875,7.9375)"/>
<path d="M0 0 C3.83902629 2.33679861 6.20953589 3.86281109 8 8 C8.556875 7.96519531 9.11375 7.93039063 9.6875 7.89453125 C15.54701038 7.686677 19.6300336 8.65674193 25 11 C25 11.66 25 12.32 25 13 C25.5775 13.20625 26.155 13.4125 26.75 13.625 C29.863127 15.5274665 31.20739939 17.86294893 33 21 C33 21.99 33 22.98 33 24 C33.7425 23.95875 34.485 23.9175 35.25 23.875 C38.08758952 24.00398134 39.58773938 24.57051222 42 26 C42 26.66 42 27.32 42 28 C42.598125 28.226875 43.19625 28.45375 43.8125 28.6875 C46.69202818 30.41521691 47.58226513 31.96199671 49 35 C49.6875 38.8125 49.6875 38.8125 50 42 C50.94875 41.360625 51.8975 40.72125 52.875 40.0625 C56 38 56 38 58 37 C57.8125 39.3125 57.8125 39.3125 57 42 C53.66753954 44.68448204 51.23795734 45.36325349 47 45 C47.4021875 45.99 47.4021875 45.99 47.8125 47 C48.09310335 51.48965365 45.86629733 54.62973831 43 58 C39.51893486 59.16035505 36.8152767 59.12002704 33.1418457 59.11352539 C32.44890411 59.11367142 31.75596252 59.11381744 31.04202271 59.1139679 C28.75324363 59.11327163 26.4645461 59.1054926 24.17578125 59.09765625 C22.58823186 59.09579106 21.00068189 59.09436763 19.41313171 59.09336853 C15.2357728 59.08955134 11.05844869 59.07972786 6.88110352 59.06866455 C2.61800609 59.05843328 -1.64509696 59.05386723 -5.90820312 59.04882812 C-14.27215138 59.03810489 -22.63607136 59.02103803 -31 59 C-30.84063965 59.9273999 -30.6812793 60.8547998 -30.51708984 61.81030273 C-29.47453384 68.24136704 -28.45238418 74.63305815 -32.125 80.25 C-35.52716253 82.32088154 -37.09709512 82.83040529 -41 82 C-43.4375 79.875 -43.4375 79.875 -45 77 C-44.81842617 73.91324488 -44.37817818 71.75635635 -43 69 C-42.34 69 -41.68 69 -41 69 C-41 67.68 -41 66.36 -41 65 C-40.34 65 -39.68 65 -39 65 C-38.67 63.68 -38.34 62.36 -38 61 C-41.465 60.505 -41.465 60.505 -45 60 C-45.33 61.32 -45.66 62.64 -46 64 C-46.2475 63.4225 -46.495 62.845 -46.75 62.25 C-48.82554091 58.51402637 -50.93173944 56.35608685 -55 55 C-55 54.34 -55 53.68 -55 53 C-55.66 53 -56.32 53 -57 53 C-59.05264033 46.02102288 -60.1679607 40.45998775 -59.5625 33.1875 C-59.51029297 32.49462891 -59.45808594 31.80175781 -59.40429688 31.08789062 C-59.27560181 29.39145563 -59.13863816 27.69565137 -59 26 C-57.68 25.67 -56.36 25.34 -55 25 C-55 24.34 -55 23.68 -55 23 C-54.34 23 -53.68 23 -53 23 C-52.34 21.68 -51.68 20.36 -51 19 C-50.01 19 -49.02 19 -48 19 C-48 18.34 -48 17.68 -48 17 C-47.36191406 16.87882812 -46.72382812 16.75765625 -46.06640625 16.6328125 C-45.24011719 16.46523438 -44.41382812 16.29765625 -43.5625 16.125 C-42.32693359 15.88136719 -42.32693359 15.88136719 -41.06640625 15.6328125 C-40.38449219 15.42398438 -39.70257813 15.21515625 -39 15 C-38.67 14.34 -38.34 13.68 -38 13 C-37.34 13 -36.68 13 -36 13 C-36.33 14.98 -36.66 16.96 -37 19 C-37.71285156 19.07476562 -38.42570312 19.14953125 -39.16015625 19.2265625 C-45.93284272 20.15632565 -50.57535283 21.60786438 -55 27 C-58.44425637 32.28274457 -57.64647976 38.97965723 -57 45 C-55.09960862 50.54846412 -52.10194949 53.28180862 -46.99802017 56.1349678 C-43.69040093 57.56698395 -40.38497746 57.54069933 -36.84912109 57.48583984 C-36.06609116 57.48963654 -35.28306122 57.49343323 -34.4763031 57.49734497 C-31.90826346 57.50470735 -29.34137519 57.4834334 -26.7734375 57.4609375 C-24.97938164 57.45855082 -23.18532325 57.45764823 -21.39126587 57.4581604 C-17.64056641 57.45504001 -13.89025125 57.438531 -10.13964844 57.41162109 C-5.33674003 57.37759332 -0.53425226 57.3699944 4.26876259 57.37151146 C7.96969604 57.37096724 11.67053792 57.35999253 15.37144089 57.34550858 C17.14243248 57.33915449 18.91343442 57.33520494 20.6844368 57.33372116 C23.15910724 57.32937612 25.63333515 57.31185093 28.10791016 57.29052734 C29.20056435 57.2918869 29.20056435 57.2918869 30.31529236 57.29327393 C34.31019308 57.24303629 37.40021921 56.76126872 41 55 C41 54.34 41 53.68 41 53 C41.66 53 42.32 53 43 53 C45.09376769 46.58783646 46.18983637 41.16548123 43.375 34.75 C41.28535531 30.93252189 39.16963972 29.4466097 35 28 C34.113125 27.9175 33.22625 27.835 32.3125 27.75 C30 27 30 27 28.25 23.625 C27.48971899 21.42018507 26.73751177 19.21253531 26 17 C24.16715557 15.87483915 24.16715557 15.87483915 22 15 C21.41863281 14.65582031 20.83726562 14.31164063 20.23828125 13.95703125 C17.40632879 12.74616152 15.07042216 12.79605633 12 12.75 C8.77734375 12.53515625 8.77734375 12.53515625 6 12 C3.5625 9.1875 3.5625 9.1875 2 6 C-0.6091387 3.67722584 -0.6091387 3.67722584 -3 2 C-2.01 2 -1.02 2 0 2 C0 1.34 0 0.68 0 0 Z " fill="#DAF7FE" transform="translate(111,19)"/>
<path d="M0 0 C0.10823773 2.24893954 0.18569645 4.49937575 0.25 6.75 C0.29640625 8.00296875 0.3428125 9.2559375 0.390625 10.546875 C0 14 0 14 -1.828125 16.390625 C-4.64618523 18.4788279 -6.4938088 19 -10 19 C-12.69816624 17.10399129 -13.75795687 15.62931214 -14.9375 12.5625 C-15.0253585 8.96030136 -14.31842307 7.79574547 -12 5 C-4.06663026 -1.35554342 -4.06663026 -1.35554342 0 0 Z " fill="#42ABFB" transform="translate(124,106)"/>
<path d="M0 0 C3.11517124 4.67275686 2.7146102 9.53360032 2 15 C-0.125 18.25 -0.125 18.25 -3 20 C-6.0625 20.625 -6.0625 20.625 -9 20 C-11.4375 17.875 -11.4375 17.875 -13 15 C-12.81842617 11.91324488 -12.37817818 9.75635635 -11 7 C-10.34 7 -9.68 7 -9 7 C-9 6.34 -9 5.68 -9 5 C-6.03 3.35 -3.06 1.7 0 0 Z " fill="#43AAF9" transform="translate(79,81)"/>
<path d="M0 0 C0.13572155 2.39774745 0.23436868 4.78775245 0.3125 7.1875 C0.3753418 8.19780273 0.3753418 8.19780273 0.43945312 9.22851562 C0.53633468 13.20065948 0.14769617 14.81489073 -2.359375 17.95703125 C-5 20 -5 20 -7.5625 20.5 C-10.6345575 19.86983436 -11.95605162 19.42245734 -14 17 C-14.45996701 13.83133837 -14.67421495 12.01622478 -14 9 C-11.02587924 5.03450565 -5.26174198 0 0 0 Z " fill="#4CA8F1" transform="translate(95,105)"/>
<path d="M0 0 C0.08139142 2.39652528 0.14067009 4.79025436 0.1875 7.1875 C0.21263672 7.86103516 0.23777344 8.53457031 0.26367188 9.22851562 C0.32865736 13.66919012 -0.13268673 16.54738655 -3 20 C-6.4375 20.625 -6.4375 20.625 -10 20 C-12.96135546 17.41830549 -13.86756104 15.81118865 -14.5 11.9375 C-13.8605703 8.18085049 -13.00292495 7.32726684 -10 5 C-2.70893372 0 -2.70893372 0 0 0 Z " fill="#42AAF9" transform="translate(138,81)"/>
<path d="M0 0 C0.05394705 2.60444348 0.09364469 5.20776998 0.125 7.8125 C0.14175781 8.55048828 0.15851563 9.28847656 0.17578125 10.04882812 C0.21074628 13.91246426 0.19397555 15.70903668 -2 19 C-4.65916139 20.01301386 -7.1712459 20.26781104 -10 20 C-12.5625 18 -12.5625 18 -14 15 C-14.125 11.5 -14.125 11.5 -13 8 C-10.1875 5.25 -10.1875 5.25 -7 3 C-6.278125 2.401875 -5.55625 1.80375 -4.8125 1.1875 C-3 0 -3 0 0 0 Z " fill="#40ACF9" transform="translate(109,81)"/>
<path d="M0 0 C3.44326609 2.06471209 5.46068926 3.59337764 7.71875 6.98046875 C5.24375 5.99046875 5.24375 5.99046875 2.71875 4.98046875 C2.71875 4.32046875 2.71875 3.66046875 2.71875 2.98046875 C-0.84431661 2.24958329 -4.33903323 1.84908694 -7.96875 1.73046875 C-8.71511719 1.7046875 -9.46148437 1.67890625 -10.23046875 1.65234375 C-12.8128233 2.06552048 -13.57111817 3.07206076 -15.28125 4.98046875 C-15.9 5.08359375 -16.51875 5.18671875 -17.15625 5.29296875 C-19.66219872 5.89485139 -19.66219872 5.89485139 -21.78125 8.98046875 C-24.28125 11.98046875 -24.28125 11.98046875 -26.59375 12.85546875 C-27.4290625 12.91734375 -27.4290625 12.91734375 -28.28125 12.98046875 C-25.85381918 16.39685286 -24.40065809 17.73394098 -20.23046875 18.65234375 C-17.97093035 18.94918005 -15.70606767 19.20846519 -13.4375 19.42578125 C-10.05825775 20.01965798 -8.02937571 20.9531629 -5.28125 22.98046875 C-4.46875 25.16796875 -4.46875 25.16796875 -4.28125 26.98046875 C-5.60125 26.32046875 -6.92125 25.66046875 -8.28125 24.98046875 C-8.28125 24.32046875 -8.28125 23.66046875 -8.28125 22.98046875 C-12.60899472 21.80017473 -16.55080982 20.92059722 -21.03125 20.66796875 C-24.49619906 20.34164649 -25.01430626 20.2622427 -27.53125 17.60546875 C-28.10875 16.73921875 -28.68625 15.87296875 -29.28125 14.98046875 C-30.93786761 13.96390794 -32.60236559 12.95981799 -34.28125 11.98046875 C-34.28125 11.32046875 -34.28125 10.66046875 -34.28125 9.98046875 C-30.98125 9.98046875 -27.68125 9.98046875 -24.28125 9.98046875 C-23.62125 8.66046875 -22.96125 7.34046875 -22.28125 5.98046875 C-16.92431385 -0.56689766 -7.9231921 -3.54101565 0 0 Z " fill="#61ACE4" transform="translate(144.28125,7.01953125)"/>
<path d="M0 0 C1 3 1 3 0.0625 5.1875 C-0.288125 5.785625 -0.63875 6.38375 -1 7 C-1.66 7 -2.32 7 -3 7 C-3 7.66 -3 8.32 -3 9 C-7.0876812 12.26550069 -10.91019328 12.4298431 -15.93969727 12.38818359 C-17.11621353 12.39606903 -17.11621353 12.39606903 -18.3164978 12.40411377 C-20.90000527 12.41727987 -23.4828929 12.40858877 -26.06640625 12.3984375 C-27.86571877 12.40045901 -29.66503049 12.40337109 -31.46434021 12.40713501 C-35.23110777 12.41155359 -38.99766161 12.40514158 -42.7644043 12.39111328 C-47.5921988 12.37400933 -52.4194934 12.38387311 -57.24726963 12.40183067 C-60.96103178 12.41267062 -64.67467537 12.40922142 -68.38844109 12.4014473 C-70.1686401 12.39944651 -71.9488499 12.40190031 -73.72903633 12.40888596 C-76.21621355 12.41650532 -78.7025804 12.40489047 -81.18969727 12.38818359 C-81.92487076 12.39425629 -82.66004425 12.40032898 -83.41749573 12.40658569 C-87.55708017 12.35507392 -89.99317906 11.93498936 -93 9 C-91.69063477 9.16153564 -90.38126953 9.32307129 -89.03222656 9.48950195 C-81.52873078 10.23490356 -74.01607272 10.16435185 -66.484375 10.16796875 C-64.89878307 10.17118858 -63.31319143 10.17455318 -61.7276001 10.17805481 C-58.42288524 10.18400769 -55.1181964 10.1858984 -51.81347656 10.18530273 C-47.58810555 10.18520067 -43.3629009 10.1989153 -39.13756943 10.21607494 C-35.87069943 10.22720611 -32.60386975 10.22922169 -29.33698273 10.22869301 C-27.77892731 10.22986902 -26.22087072 10.23426947 -24.66283417 10.24202538 C-22.48571586 10.25185955 -20.3089605 10.24893522 -18.13183594 10.24291992 C-16.89624939 10.24434494 -15.66066284 10.24576996 -14.38763428 10.24723816 C-10.89495199 9.99233333 -8.19525328 9.43148435 -5 8 C-4.67 7.01 -4.34 6.02 -4 5 C-3.34 5 -2.68 5 -2 5 C-1.34 3.35 -0.68 1.7 0 0 Z " fill="#63A9E0" transform="translate(155,65)"/>
<path d="M0 0 C0.10823773 2.24893954 0.18569645 4.49937575 0.25 6.75 C0.29640625 8.00296875 0.3428125 9.2559375 0.390625 10.546875 C0 14 0 14 -1.828125 16.390625 C-4.64618523 18.4788279 -6.4938088 19 -10 19 C-12.69816624 17.10399129 -13.75795687 15.62931214 -14.9375 12.5625 C-15.0253585 8.96030136 -14.31842307 7.79574547 -12 5 C-4.06663026 -1.35554342 -4.06663026 -1.35554342 0 0 Z M-6 3 C-6.33 3.99 -6.66 4.98 -7 6 C-8.65 6.33 -10.3 6.66 -12 7 C-12.33 9.31 -12.66 11.62 -13 14 C-9.81237635 16.12508244 -7.73487777 16.5020163 -4 17 C-1.71937172 13.57905758 -1.78074993 12.31812778 -1.875 8.3125 C-1.90207031 6.82169922 -1.90207031 6.82169922 -1.9296875 5.30078125 C-1.95289062 4.54152344 -1.97609375 3.78226562 -2 3 C-3.32 3 -4.64 3 -6 3 Z " fill="#55A8E4" transform="translate(124,106)"/>
<path d="M0 0 C0.66 0.66 1.32 1.32 2 2 C0.7315625 1.87625 0.7315625 1.87625 -0.5625 1.75 C-5.15228524 2.08380256 -7.21679363 3.38085713 -11 6 C-12.2516467 8.08334635 -12.2516467 8.08334635 -13 10 C-13.99 10.33 -14.98 10.66 -16 11 C-16.08139142 13.39652528 -16.14067009 15.79025436 -16.1875 18.1875 C-16.21263672 18.86103516 -16.23777344 19.53457031 -16.26367188 20.22851562 C-16.32994978 24.75750589 -15.57064512 27.30933627 -13 31 C-13 31.66 -13 32.32 -13 33 C-12.34 33 -11.68 33 -11 33 C-10.67 33.99 -10.34 34.98 -10 36 C-13.98796116 34.26165796 -15.81759158 32.32614551 -18.01171875 28.6171875 C-20.04540224 23.23154346 -19.73270752 17.63568494 -19 12 C-16.74734077 7.06147783 -13.28513199 4.19105574 -9 1 C-5.75778445 -0.08073852 -3.39597063 -0.21676408 0 0 Z " fill="#60AADC" transform="translate(72,38)"/>
<path d="M0 0 C0.66 0 1.32 0 2 0 C1.67 1.98 1.34 3.96 1 6 C0.28714844 6.07476562 -0.42570312 6.14953125 -1.16015625 6.2265625 C-7.93284272 7.15632565 -12.57535283 8.60786438 -17 14 C-19.63958628 17.77083754 -19.22644792 21.83311379 -19.125 26.25 C-19.11146484 27.36761719 -19.11146484 27.36761719 -19.09765625 28.5078125 C-19.07418358 30.33868059 -19.03831525 32.16938238 -19 34 C-19.99 33.34 -20.98 32.68 -22 32 C-22.2487793 30.02880859 -22.2487793 30.02880859 -22.07421875 27.6484375 C-22.01943359 26.79765625 -21.96464844 25.946875 -21.90820312 25.0703125 C-21.83537109 24.18085937 -21.76253906 23.29140625 -21.6875 22.375 C-21.62626953 21.4778125 -21.56503906 20.580625 -21.50195312 19.65625 C-21.34843467 17.43613694 -21.18056839 15.21805021 -21 13 C-19.68 12.67 -18.36 12.34 -17 12 C-17 11.34 -17 10.68 -17 10 C-16.34 10 -15.68 10 -15 10 C-14.34 8.68 -13.68 7.36 -13 6 C-12.01 6 -11.02 6 -10 6 C-10 5.34 -10 4.68 -10 4 C-9.04287109 3.81824219 -9.04287109 3.81824219 -8.06640625 3.6328125 C-7.24011719 3.46523438 -6.41382812 3.29765625 -5.5625 3.125 C-4.73878906 2.96257813 -3.91507813 2.80015625 -3.06640625 2.6328125 C-2.38449219 2.42398438 -1.70257813 2.21515625 -1 2 C-0.67 1.34 -0.34 0.68 0 0 Z " fill="#D1F4FE" transform="translate(73,32)"/>
<path d="M0 0 C0.495 0.99 0.495 0.99 1 2 C-0.32 2 -1.64 2 -3 2 C-3 1.34 -3 0.68 -3 0 C-3.94875 -0.309375 -4.8975 -0.61875 -5.875 -0.9375 C-9 -2 -9 -2 -11 -3 C-18.48702181 -4.02686584 -23.54760714 -2.79557798 -29.90625 1.19921875 C-34.10893422 4.81384081 -35.37196495 8.59889858 -36 14 C-36.99 14 -37.98 14 -39 14 C-38.57698422 8.35978964 -36.45649883 4.36021955 -33 0 C-21.99290902 -9.09281429 -11.26092426 -6.95474683 0 0 Z " fill="#66ADE1" transform="translate(113,24)"/>
<path d="M0 0 C0 4.95 0 9.9 0 15 C-0.33 15 -0.66 15 -1 15 C-1 11.04 -1 7.08 -1 3 C-1.66 3 -2.32 3 -3 3 C-3 3.66 -3 4.32 -3 5 C-7.38461538 8 -7.38461538 8 -10 8 C-11.33648017 9.11101184 -11.33648017 9.11101184 -11.125 11.9375 C-11.21325664 14.91545728 -11.21325664 14.91545728 -10 17 C-7.03 16.67 -4.06 16.34 -1 16 C-1.66 17.32 -2.32 18.64 -3 20 C-6.25 20.3125 -6.25 20.3125 -10 20 C-12.96135546 17.41830549 -13.86756104 15.81118865 -14.5 11.9375 C-13.8605703 8.18085049 -13.00292495 7.32726684 -10 5 C-2.70893372 0 -2.70893372 0 0 0 Z " fill="#5CA8DF" transform="translate(138,81)"/>
<path d="M0 0 C2.31 0.33 4.62 0.66 7 1 C7.37125 2.2065625 7.37125 2.2065625 7.75 3.4375 C8.72238859 6.171081 8.72238859 6.171081 11.125 6.8125 C12.053125 6.9053125 12.053125 6.9053125 13 7 C13 8.65 13 10.3 13 12 C13.70125 12.226875 14.4025 12.45375 15.125 12.6875 C18.69343613 14.31656867 21.06514511 16.40640731 24 19 C23.67 19.99 23.34 20.98 23 22 C22.45730469 21.65066406 21.91460937 21.30132813 21.35546875 20.94140625 C20.28232422 20.25884766 20.28232422 20.25884766 19.1875 19.5625 C18.47980469 19.11003906 17.77210938 18.65757813 17.04296875 18.19140625 C14.91865448 16.85913661 14.91865448 16.85913661 12 16 C10.7890625 13.85546875 10.7890625 13.85546875 9.625 11.1875 C7.65588881 7.01726754 5.94326403 4.55779288 2 2 C1.34 1.34 0.68 0.68 0 0 Z " fill="#D8F9FE" transform="translate(144,7)"/>
<path d="M0 0 C0.05394705 2.60444348 0.09364469 5.20776998 0.125 7.8125 C0.14175781 8.55048828 0.15851563 9.28847656 0.17578125 10.04882812 C0.21074628 13.91246426 0.19397555 15.70903668 -2 19 C-4.65916139 20.01301386 -7.1712459 20.26781104 -10 20 C-12.5625 18 -12.5625 18 -14 15 C-14.125 11.5 -14.125 11.5 -13 8 C-10.1875 5.25 -10.1875 5.25 -7 3 C-6.278125 2.401875 -5.55625 1.80375 -4.8125 1.1875 C-3 0 -3 0 0 0 Z M-10.25 6.875 C-12.42380484 9.05581358 -12.42380484 9.05581358 -12 13 C-11.34 13 -10.68 13 -10 13 C-10.33 14.32 -10.66 15.64 -11 17 C-6.48482136 18.19787934 -6.48482136 18.19787934 -2.28125 16.90625 C-0.44243236 14.17044815 -0.70738721 12.07099634 -0.8125 8.8125 C-0.83957031 7.72582031 -0.86664063 6.63914062 -0.89453125 5.51953125 C-0.92933594 4.68808594 -0.96414062 3.85664062 -1 3 C-5.15757798 3 -7.08493337 4.23744448 -10.25 6.875 Z " fill="#62A8DD" transform="translate(109,81)"/>
<path d="M0 0 C3.11517124 4.67275686 2.7146102 9.53360032 2 15 C-0.125 18.25 -0.125 18.25 -3 20 C-6.0625 20.625 -6.0625 20.625 -9 20 C-11.4375 17.875 -11.4375 17.875 -13 15 C-12.81842617 11.91324488 -12.37817818 9.75635635 -11 7 C-10.34 7 -9.68 7 -9 7 C-9 6.34 -9 5.68 -9 5 C-6.03 3.35 -3.06 1.7 0 0 Z M-3 3 C-3.99 3.66 -4.98 4.32 -6 5 C-6 5.66 -6 6.32 -6 7 C-6.99 7.33 -7.98 7.66 -9 8 C-9 8.66 -9 9.32 -9 10 C-9.66 10 -10.32 10 -11 10 C-11.29607697 13.60988065 -11.29607697 13.60988065 -9.8125 16.8125 C-7.44017475 18.36678206 -5.77958655 18.22537188 -3 18 C-3 17.34 -3 16.68 -3 16 C-1.68 15.67 -0.36 15.34 1 15 C1 11.37 1 7.74 1 4 C-0.32 3.67 -1.64 3.34 -3 3 Z " fill="#6BADDF" transform="translate(79,81)"/>
<path d="M0 0 C2.89932357 2.39509338 3.50168276 4.31245243 4 8 C4.680625 8.061875 5.36125 8.12375 6.0625 8.1875 C11.46928038 9.68299245 14.93404032 12.68804962 18.4375 17 C21.15147921 22.18543262 20.30690271 28.33082496 20 34 C19.67 34 19.34 34 19 34 C18.92523438 33.07058594 18.85046875 32.14117187 18.7734375 31.18359375 C17.90740207 21.87609486 17.90740207 21.87609486 12.92578125 14.32421875 C9.86393587 12.21881189 6.58865342 10.98519044 3.07421875 9.82421875 C1 9 1 9 0 7 C-0.04022391 4.6670134 -0.04320247 2.33293334 0 0 Z " fill="#59A5DB" transform="translate(152,15)"/>
<path d="M0 0 C1.25683594 0.00322266 2.51367188 0.00644531 3.80859375 0.00976562 C5.12730469 0.01814453 6.44601563 0.02652344 7.8046875 0.03515625 C9.14452961 0.04017136 10.4843735 0.04473424 11.82421875 0.04882812 C15.10941956 0.06064539 18.39453147 0.07712008 21.6796875 0.09765625 C21.6796875 0.75765625 21.6796875 1.41765625 21.6796875 2.09765625 C22.6696875 2.42765625 23.6596875 2.75765625 24.6796875 3.09765625 C20.9296875 6.09765625 20.9296875 6.09765625 18.6796875 6.09765625 C19.0096875 4.44765625 19.3396875 2.79765625 19.6796875 1.09765625 C12.0896875 1.09765625 4.4996875 1.09765625 -3.3203125 1.09765625 C-3.3203125 1.75765625 -3.3203125 2.41765625 -3.3203125 3.09765625 C-8.2703125 5.57265625 -8.2703125 5.57265625 -13.3203125 8.09765625 C-13.3203125 7.10765625 -13.3203125 6.11765625 -13.3203125 5.09765625 C-11.6703125 4.76765625 -10.0203125 4.43765625 -8.3203125 4.09765625 C-8.3203125 3.10765625 -8.3203125 2.11765625 -8.3203125 1.09765625 C-5.50207058 -0.31146471 -3.14779968 -0.01417928 0 0 Z " fill="#E7FBFE" transform="translate(112.3203125,77.90234375)"/>
<path d="M0 0 C0.66 0 1.32 0 2 0 C2.33 0.66 2.66 1.32 3 2 C3.33 1.34 3.66 0.68 4 0 C4.66 0.33 5.32 0.66 6 1 C6 2.65 6 4.3 6 6 C6.928125 5.7215625 6.928125 5.7215625 7.875 5.4375 C10 5 10 5 12 6 C11.67 7.32 11.34 8.64 11 10 C11.7425 10.061875 12.485 10.12375 13.25 10.1875 C16.89817919 11.26537113 18.05452793 12.7824885 20 16 C19.75 18.3125 19.75 18.3125 19 20 C18.38125 19.030625 17.7625 18.06125 17.125 17.0625 C15.34321154 13.97164638 15.34321154 13.97164638 13 13 C13 12.34 13 11.68 13 11 C12.38511719 10.92523438 11.77023438 10.85046875 11.13671875 10.7734375 C8.62982239 10.36561704 6.37784762 9.89961198 4 9 C2 6.0625 2 6.0625 1 3 C0.67 2.01 0.34 1.02 0 0 Z " fill="#5BABE7" transform="translate(140,34)"/>
<path d="M0 0 C1.8125 0.5 1.8125 0.5 4 2 C7.82763945 8.99534107 6.97879455 15.26398525 6 23 C5.34 23 4.68 23 4 23 C3.67 23.99 3.34 24.98 3 26 C2.34 26 1.68 26 1 26 C1.33 25.113125 1.66 24.22625 2 23.3125 C3.8304806 16.85972666 4.5824379 8.32315837 1.5 2.1875 C1.005 1.465625 0.51 0.74375 0 0 Z " fill="#E3FBFE" transform="translate(168,30)"/>
<path d="M0 0 C2.64 0 5.28 0 8 0 C6.02 0.99 6.02 0.99 4 2 C6.42743082 5.41638411 7.88059191 6.75347223 12.05078125 7.671875 C14.31031965 7.9687113 16.57518233 8.22799644 18.84375 8.4453125 C22.22299225 9.03918923 24.25187429 9.97269415 27 12 C27.8125 14.1875 27.8125 14.1875 28 16 C26.68 15.34 25.36 14.68 24 14 C24 13.34 24 12.68 24 12 C19.67225528 10.81970598 15.73044018 9.94012847 11.25 9.6875 C7.72650173 9.36057748 7.23518864 9.24137781 4.625 6.5625 C4.08875 5.716875 3.5525 4.87125 3 4 C2.01 3.34 1.02 2.68 0 2 C0 1.34 0 0.68 0 0 Z " fill="#62ABE1" transform="translate(112,18)"/>
<path d="M0 0 C0.66 0.33 1.32 0.66 2 1 C1.79375 1.9075 1.5875 2.815 1.375 3.75 C0.82566061 6.8642285 0.82566061 6.8642285 1.5625 9.3125 C2.97134156 11.27370886 2.97134156 11.27370886 5.875 11.875 C9.09916024 12.00396641 10.3766496 11.78013063 13 10 C13.66 9.34 14.32 8.68 15 8 C14.67 9.65 14.34 11.3 14 13 C12.68 13 11.36 13 10 13 C10 13.66 10 14.32 10 15 C9.01 15.33 8.02 15.66 7 16 C7 15.34 7 14.68 7 14 C5.865625 13.855625 4.73125 13.71125 3.5625 13.5625 C0 13 0 13 -1 12 C-1.09854655 10.35659133 -1.12972411 8.7088539 -1.125 7.0625 C-1.12757812 6.16660156 -1.13015625 5.27070312 -1.1328125 4.34765625 C-1 2 -1 2 0 0 Z " fill="#DAF5FE" transform="translate(109,112)"/>
<path d="M0 0 C0 1.65 0 3.3 0 5 C-0.886875 4.896875 -1.77375 4.79375 -2.6875 4.6875 C-6.12590459 4.73814806 -6.12590459 4.73814806 -8.875 7 C-11.72988584 11.03042707 -11.41040319 13.15724241 -11 18 C-11.99 17.67 -12.98 17.34 -14 17 C-14.60913706 9.81218274 -14.60913706 9.81218274 -11.9375 6.25 C-3.77777778 0 -3.77777778 0 0 0 Z " fill="#66AAE0" transform="translate(95,105)"/>
<path d="M0 0 C0.99 0.33 1.98 0.66 3 1 C3.05398987 3.27057377 3.09278742 5.54151288 3.125 7.8125 C3.14820312 9.07707031 3.17140625 10.34164062 3.1953125 11.64453125 C3 15 3 15 1 18 C0.34 18 -0.32 18 -1 18 C-0.67 17.01 -0.34 16.02 0 15 C0.22179785 13.10787263 0.40614015 11.21115528 0.5625 9.3125 C0.64628906 8.31863281 0.73007813 7.32476562 0.81640625 6.30078125 C0.87699219 5.54152344 0.93757813 4.78226562 1 4 C-0.65 4.33 -2.3 4.66 -4 5 C-3 2 -3 2 0 0 Z " fill="#67ACE2" transform="translate(121,105)"/>
<path d="M0 0 C0.99 0.33 1.98 0.66 3 1 C3.103125 1.78375 3.20625 2.5675 3.3125 3.375 C3.77595022 6.33045181 3.77595022 6.33045181 7 8 C6.67 8.66 6.34 9.32 6 10 C4.02 10 2.04 10 0 10 C-1.36952673 7.26094655 -1.12621361 5.02912668 -1 2 C-0.67 1.34 -0.34 0.68 0 0 Z " fill="#41ABFD" transform="translate(84,113)"/>
<path d="M0 0 C0.70125 0.2475 1.4025 0.495 2.125 0.75 C-1.6685871 3.96880117 -5.53329477 6.3663187 -9.875 8.75 C-9.75 6.5 -9.75 6.5 -8.875 3.75 C-4.11824324 -0.35810811 -4.11824324 -0.35810811 0 0 Z " fill="#DBF5FD" transform="translate(92.875,103.25)"/>
<path d="M0 0 C0.66 0.66 1.32 1.32 2 2 C0.7315625 1.87625 0.7315625 1.87625 -0.5625 1.75 C-5.15228524 2.08380256 -7.21679363 3.38085713 -11 6 C-12.4662686 8.08451836 -12.4662686 8.08451836 -13 10 C-13.66 9.67 -14.32 9.34 -15 9 C-13.73090537 5.08695821 -12.53743024 3.14389712 -9 1 C-5.75778445 -0.08073852 -3.39597063 -0.21676408 0 0 Z " fill="#55A4DE" transform="translate(72,38)"/>
<path d="M0 0 C0.53625 0.66 1.0725 1.32 1.625 2 C3.8719388 4.26038763 3.8719388 4.26038763 7 4.375 C9.83526512 4.02059186 11.58950039 3.48338437 14 2 C14 3.32 14 4.64 14 6 C11.47524538 7.26237731 9.68799534 7.09856404 6.875 7.0625 C5.96492188 7.05347656 5.05484375 7.04445313 4.1171875 7.03515625 C3.41851562 7.02355469 2.71984375 7.01195313 2 7 C1.34 4.69 0.68 2.38 0 0 Z " fill="#DDF6FD" transform="translate(66,96)"/>
<path d="M0 0 C2.25 0.875 2.25 0.875 4 2 C0.25 5 0.25 5 -2 5 C-2 8.3 -2 11.6 -2 15 C-2.66 14.67 -3.32 14.34 -4 14 C-4 10.04 -4 6.08 -4 2 C-2.68 1.34 -1.36 0.68 0 0 Z " fill="#D3F5FE" transform="translate(127,83)"/>
<path d="M0 0 C0.99 0.33 1.98 0.66 3 1 C2.67 1.66 2.34 2.32 2 3 C1.34 3 0.68 3 0 3 C-0.309375 3.61875 -0.61875 4.2375 -0.9375 4.875 C-1.625 6.25 -2.3125 7.625 -3 9 C-5.50390625 9.4140625 -5.50390625 9.4140625 -8.5625 9.625 C-9.57441406 9.69976562 -10.58632812 9.77453125 -11.62890625 9.8515625 C-12.41136719 9.90054687 -13.19382812 9.94953125 -14 10 C-14 9.34 -14 8.68 -14 8 C-11.03 8 -8.06 8 -5 8 C-3 4.23570226 -3 4.23570226 -2 1 C-1.34 0.67 -0.68 0.34 0 0 Z " fill="#E1FAFE" transform="translate(123,8)"/>
<path d="M0 0 C1.7421875 1.515625 1.7421875 1.515625 3 3 C1.91332031 2.96519531 1.91332031 2.96519531 0.8046875 2.9296875 C-4.54578244 2.82981206 -8.99446082 2.83544252 -14 5 C-13.67 3.68 -13.34 2.36 -13 1 C-8.55522251 -0.11119437 -4.55553378 -0.29390541 0 0 Z " fill="#E4FAFE" transform="translate(141,4)"/>
<path d="M0 0 C3.37991014 3.11307513 5.82236619 5.50358001 7 10 C7.07646165 12.3320802 7.09143299 14.66845878 7 17 C6.67 17 6.34 17 6 17 C5.34 13.37 4.68 9.74 4 6 C3.01 6 2.02 6 1 6 C0.67 4.02 0.34 2.04 0 0 Z " fill="#6AAADD" transform="translate(150,48)"/>
<path d="M0 0 C1.89492187 0.01353516 1.89492187 0.01353516 3.828125 0.02734375 C4.79234375 0.03894531 5.7565625 0.05054687 6.75 0.0625 C7.41 1.3825 8.07 2.7025 8.75 4.0625 C7.76 3.7325 6.77 3.4025 5.75 3.0625 C0.06685664 1.44038823 -5.50752259 1.62688065 -11.25 3.0625 C-11.25 2.4025 -11.25 1.7425 -11.25 1.0625 C-7.49600202 -0.1414337 -3.91782588 -0.03627617 0 0 Z " fill="#D9F6FD" transform="translate(99.25,16.9375)"/>
<path d="M0 0 C1.98 0.66 3.96 1.32 6 2 C5.67 6.62 5.34 11.24 5 16 C4.67 16 4.34 16 4 16 C3.67 11.71 3.34 7.42 3 3 C2.01 3 1.02 3 0 3 C0 2.01 0 1.02 0 0 Z " fill="#E2FAFE" transform="translate(120,103)"/>
<path d="M0 0 C1 3 1 3 0.0625 5.1875 C-0.288125 5.785625 -0.63875 6.38375 -1 7 C-1.66 7 -2.32 7 -3 7 C-3 7.66 -3 8.32 -3 9 C-5.35438733 10.42944945 -6.48032433 11.08661261 -9.25 10.625 C-9.8275 10.41875 -10.405 10.2125 -11 10 C-10.030625 9.731875 -9.06125 9.46375 -8.0625 9.1875 C-7.051875 8.795625 -6.04125 8.40375 -5 8 C-4.67 7.01 -4.34 6.02 -4 5 C-3.34 5 -2.68 5 -2 5 C-1.34 3.35 -0.68 1.7 0 0 Z " fill="#58A5D6" transform="translate(155,65)"/>
<path d="M0 0 C1.051875 0.185625 2.10375 0.37125 3.1875 0.5625 C6.57119882 0.95079331 8.76425888 0.88247485 12 0 C11.34 1.32 10.68 2.64 10 4 C6.6875 4.25 6.6875 4.25 3 4 C1.0625 2 1.0625 2 0 0 Z " fill="#6CADDF" transform="translate(125,97)"/>
<path d="M0 0 C0.33 0.66 0.66 1.32 1 2 C0 5 0 5 -2.375 6.75 C-5 8 -5 8 -8 7 C-7.67 5.68 -7.34 4.36 -7 3 C-7 3.66 -7 4.32 -7 5 C-3.32159111 2.72692336 -3.32159111 2.72692336 0 0 Z " fill="#D8F5FD" transform="translate(168,56)"/>
<path d="M0 0 C2.97 0.33 5.94 0.66 9 1 C8.01 2.485 8.01 2.485 7 4 C3.375 4.1875 3.375 4.1875 0 4 C0 2.68 0 1.36 0 0 Z " fill="#ECFDFE" transform="translate(117,26)"/>
<path d="M0 0 C2.7972908 2.06756277 3.02692273 3.14440371 3.6875 6.6875 C3.790625 7.780625 3.89375 8.87375 4 10 C3.01 9.67 2.02 9.34 1 9 C-0.4783226 6.04335481 -0.06032783 3.25770263 0 0 Z " fill="#54A8E8" transform="translate(152,15)"/>
<path d="M0 0 C0.495 0.350625 0.99 0.70125 1.5 1.0625 C5.22697603 2.46011601 8.09802848 1.65032859 12 1 C11.67 1.99 11.34 2.98 11 4 C7.7 4.33 4.4 4.66 1 5 C0.67 3.35 0.34 1.7 0 0 Z " fill="#DAF7FE" transform="translate(81,122)"/>
<path d="M0 0 C0.99 0.33 1.98 0.66 3 1 C2.01 2.485 2.01 2.485 1 4 C0.92094936 6.33199388 0.91201231 8.66832622 1 11 C0.34 11 -0.32 11 -1 11 C-1 10.34 -1 9.68 -1 9 C-1.66 8.67 -2.32 8.34 -3 8 C-2.37240135 5.07120629 -1.41377341 2.63904371 0 0 Z " fill="#E2F7FD" transform="translate(95,87)"/>
<path d="M0 0 C3.875 1.875 3.875 1.875 5 3 C5.07313567 5.53049402 5.09247527 8.03304837 5.0625 10.5625 C5.05798828 11.27341797 5.05347656 11.98433594 5.04882812 12.71679688 C5.03700864 14.47790013 5.01907263 16.23896036 5 18 C4.67 18 4.34 18 4 18 C3.96261719 17.20335938 3.92523438 16.40671875 3.88671875 15.5859375 C3.52043059 9.68223426 3.21397206 5.03056497 0 0 Z " fill="#C1ECFD" transform="translate(168,30)"/>
<path d="M0 0 C0.66 0.33 1.32 0.66 2 1 C0.6875 3.4375 0.6875 3.4375 -2 6 C-5.65884437 6.74756245 -9.27165244 6.92928996 -13 7 C-13 6.34 -13 5.68 -13 5 C-9.7 5 -6.4 5 -3 5 C-2.34 3.68 -1.68 2.36 -1 1 C-0.67 0.67 -0.34 0.34 0 0 Z " fill="#7EB4DD" transform="translate(123,12)"/>
<path d="M0 0 C-2.36797991 2.61724095 -4.89600354 4.32861729 -8 6 C-8.66 6 -9.32 6 -10 6 C-10 5.34 -10 4.68 -10 4 C-9.34 4 -8.68 4 -8 4 C-7.67 3.01 -7.34 2.02 -7 1 C-4.53721199 -0.231394 -2.7204945 -0.07159196 0 0 Z " fill="#D5F7FE" transform="translate(80,80)"/>
<path d="M0 0 C0.66 0 1.32 0 2 0 C1.34 3.3 0.68 6.6 0 10 C-0.99 10 -1.98 10 -3 10 C-2.49287967 6.28111761 -1.88391785 3.26545761 0 0 Z " fill="#57A4E2" transform="translate(77,28)"/>
<path d="M0 0 C3.125 0.375 3.125 0.375 6 1 C4.68 1.33 3.36 1.66 2 2 C2 2.66 2 3.32 2 4 C-1.63 4 -5.26 4 -9 4 C-9 3.67 -9 3.34 -9 3 C-7.88625 2.87625 -6.7725 2.7525 -5.625 2.625 C-1.96896323 2.3534187 -1.96896323 2.3534187 0 0 Z " fill="#C3EDFD" transform="translate(126,27)"/>
<path d="M0 0 C0.33 0 0.66 0 1 0 C1.33 3.96 1.66 7.92 2 12 C0.02 12.99 0.02 12.99 -2 14 C-1.67 13.01 -1.34 12.02 -1 11 C-0.77820215 9.10787263 -0.59385985 7.21115528 -0.4375 5.3125 C-0.35371094 4.31863281 -0.26992187 3.32476562 -0.18359375 2.30078125 C-0.12300781 1.54152344 -0.06242187 0.78226562 0 0 Z " fill="#D3F4FD" transform="translate(95,109)"/>
<path d="M0 0 C0.33 1.32 0.66 2.64 1 4 C0.1028125 4.061875 0.1028125 4.061875 -0.8125 4.125 C-3.35100832 4.87739901 -3.35100832 4.87739901 -4.75 8.0625 C-5.1625 9.031875 -5.575 10.00125 -6 11 C-7 8 -7 8 -5.8125 5.5 C-4.05849431 3.0806818 -2.48205427 1.62617349 0 0 Z " fill="#62AFE8" transform="translate(116,108)"/>
<path d="M0 0 C1.37562854 1.28965176 2.70766393 2.62689293 4 4 C4 4.66 4 5.32 4 6 C3.34 6 2.68 6 2 6 C1.34 6.66 0.68 7.32 0 8 C-0.38063221 5.6739143 -0.71269945 3.33944736 -1 1 C-0.67 0.67 -0.34 0.34 0 0 Z " fill="#CAF2FE" transform="translate(156,50)"/>
<path d="M0 0 C3.375 0.25 3.375 0.25 7 1 C8.4375 3.0625 8.4375 3.0625 9 5 C4.98525763 5 3.18024863 3.33218233 0 1 C0 0.67 0 0.34 0 0 Z " fill="#CDF0FC" transform="translate(159,23)"/>
<path d="M0 0 C0.33 0 0.66 0 1 0 C1 2.64 1 5.28 1 8 C-0.65 8.33 -2.3 8.66 -4 9 C-4 8.34 -4 7.68 -4 7 C-3.34 7 -2.68 7 -2 7 C-1.34 4.69 -0.68 2.38 0 0 Z " fill="#D2F5FD" transform="translate(156,65)"/>
<path d="M0 0 C2.475 0.99 2.475 0.99 5 2 C5 2.99 5 3.98 5 5 C5.99 5 6.98 5 8 5 C8 5.66 8 6.32 8 7 C6.68 7 5.36 7 4 7 C3.896875 6.360625 3.79375 5.72125 3.6875 5.0625 C3.460625 4.381875 3.23375 3.70125 3 3 C2.01 2.67 1.02 2.34 0 2 C0 1.34 0 0.68 0 0 Z " fill="#F0FAFA" transform="translate(139,38)"/>
<path d="M0 0 C0.66 0.33 1.32 0.66 2 1 C-0.625 4.875 -0.625 4.875 -4 6 C-5.66710346 7.49985609 -5.66710346 7.49985609 -7 9 C-5.64978174 4.58110387 -3.73884332 2.65654657 0 0 Z " fill="#48ADF4" transform="translate(85,23)"/>
<path d="M0 0 C0.99 0.495 0.99 0.495 2 1 C1.01 1.495 1.01 1.495 0 2 C0 1.34 0 0.68 0 0 Z M5 2 C0.25 5.875 0.25 5.875 -2 7 C-2.33 5.68 -2.66 4.36 -3 3 C-0.29120665 1.64560332 2.00933268 1.93498549 5 2 Z " fill="#D9F4FD" transform="translate(115,104)"/>
<path d="M0 0 C1.485 0.99 1.485 0.99 3 2 C4.9896995 2.39013716 6.99019869 2.73202649 9 3 C8.67 3.66 8.34 4.32 8 5 C5.36 4.67 2.72 4.34 0 4 C0 2.68 0 1.36 0 0 Z " fill="#E2F9FE" transform="translate(96,98)"/>
<path d="M0 0 C3.68754757 0.49831724 5.60490662 1.10067643 8 4 C7.01 4.495 7.01 4.495 6 5 C6 4.34 6 3.68 6 3 C5.01 3 4.02 3 3 3 C3 3.66 3 4.32 3 5 C2.34 5 1.68 5 1 5 C0.67 3.35 0.34 1.7 0 0 Z " fill="#4FA6EB" transform="translate(143,46)"/>
<path d="M0 0 C2.875 0.6875 2.875 0.6875 6 2 C7.375 4.625 7.375 4.625 8 7 C6.68 6.34 5.36 5.68 4 5 C4 4.34 4 3.68 4 3 C2.68 2.67 1.36 2.34 0 2 C0 1.34 0 0.68 0 0 Z " fill="#54A5E0" transform="translate(132,27)"/>
<path d="M0 0 C3.375 0.25 3.375 0.25 7 1 C8.4375 3.0625 8.4375 3.0625 9 5 C5.12867972 4.42647107 2.91827204 2.51295648 0 0 Z " fill="#DDF6FC" transform="translate(144,7)"/>
<path d="M0 0 C0 0.99 0 1.98 0 3 C-3 5 -3 5 -5.1875 4.625 C-5.785625 4.41875 -6.38375 4.2125 -7 4 C-5.68 3.67 -4.36 3.34 -3 3 C-3 2.34 -3 1.68 -3 1 C-2.01 0.67 -1.02 0.34 0 0 Z " fill="#61A9DA" transform="translate(79,96)"/>
<path d="M0 0 C1.02104551 0.97850195 2.0206121 1.97980427 3 3 C3 3.33 3 3.66 3 4 C1.02 4 -0.96 4 -3 4 C-3 3.01 -3 2.02 -3 1 C-2.01 0.67 -1.02 0.34 0 0 Z " fill="#FEFBF0" transform="translate(59,76)"/>
<path d="M0 0 C2.0625 0.4375 2.0625 0.4375 4 1 C2.69593116 3.01920337 1.36176581 5.01924973 0 7 C-0.33 7 -0.66 7 -1 7 C-1.04254356 5.00045254 -1.04080783 2.99958364 -1 1 C-0.67 0.67 -0.34 0.34 0 0 Z " fill="#DBF3FD" transform="translate(76,25)"/>
<path d="M0 0 C1.32 1.32 2.64 2.64 4 4 C3.34 4 2.68 4 2 4 C1.67 4.99 1.34 5.98 1 7 C-0.0625 5.1875 -0.0625 5.1875 -1 3 C-0.67 2.01 -0.34 1.02 0 0 Z " fill="#C8F0FD" transform="translate(115,22)"/>
</svg>
