<?xml version="1.0" encoding="UTF-8"?>
<svg version="1.1" xmlns="http://www.w3.org/2000/svg" width="148" height="148">
<path d="M0 0 C48.84 0 97.68 0 148 0 C148 48.84 148 97.68 148 148 C99.16 148 50.32 148 0 148 C0 99.16 0 50.32 0 0 Z " fill="#A3D4F6" transform="translate(0,0)"/>
<path d="M0 0 C48.84 0 97.68 0 148 0 C148 24.09 148 48.18 148 73 C146 70 146 70 144.80859375 67.73046875 C140.6802178 60.07356636 135.96452663 56.26641433 128.125 52.6875 C125.09820175 51.91443585 125.09820175 51.91443585 122.328125 51.94921875 C119.4040217 51.87572938 116.82970478 51.75429039 114 51 C112.44796565 49.12948462 111.78639267 47.41186625 110.953125 45.13671875 C108.78626522 40.2790454 103.76346062 37.06395082 99 35 C96.8784414 34.72821919 96.8784414 34.72821919 94.671875 34.8046875 C93.87265625 34.81113281 93.0734375 34.81757812 92.25 34.82421875 C91.425 34.84097656 90.6 34.85773437 89.75 34.875 C88.90953125 34.88402344 88.0690625 34.89304688 87.203125 34.90234375 C85.13529396 34.92584183 83.06761005 34.96171092 81 35 C80.75258057 34.46600586 80.50516113 33.93201172 80.25024414 33.38183594 C76.45679185 25.45425068 71.83971791 20.86643152 63.5625 17.5625 C54.29624652 14.61820213 46.68623153 15.55064975 38 20 C30.6801084 25.05128397 25.71034811 31.17395834 24 40 C23.90751982 41.97744386 23.87000732 43.95790108 23.875 45.9375 C23.87242188 46.95714844 23.86984375 47.97679687 23.8671875 49.02734375 C23.99088064 51.79588725 24.37473262 54.30539535 25 57 C24.3709375 57.07476562 23.741875 57.14953125 23.09375 57.2265625 C15.54860434 58.38560596 10.14509697 60.83854854 5.46484375 67.03125 C3.40027592 70.25751343 1.71457293 73.57085414 0 77 C0 51.59 0 26.18 0 0 Z " fill="#FEFEFE" transform="translate(0,0)"/>
<path d="M0 0 C5.06864014 3.50058257 9.04992165 7.59152302 12 13 C12 13.99 12 14.98 12 16 C12.52078125 15.84273437 13.0415625 15.68546875 13.578125 15.5234375 C20.27415997 14.07622994 28.44113067 13.48119158 34.5 17.0625 C39.85125811 21.12485293 43.98865932 25.21123036 45 32 C45.67804688 31.95359375 46.35609375 31.9071875 47.0546875 31.859375 C55.74951275 31.52217956 62.69735048 33.27237821 69.75 38.5 C74.78646687 43.23738926 78.33471384 49.90230827 79.44140625 56.71875 C79.56489865 62.05362159 78.50947553 66.90552008 77 72 C76.34 72 75.68 72 75 72 C73.95760439 70.80657548 72.96590275 69.56863796 72 68.3125 C67.99513446 63.66487827 63.89859835 60.79487087 58 59 C55.73128104 58.88379088 53.45917006 58.82276744 51.1875 58.8125 C47.8515625 58.69140625 47.8515625 58.69140625 45 58 C43.03675347 55.61478872 42.11810515 53.39743791 41.03125 50.515625 C39.11964849 45.85247587 35.78088851 43.86973625 31.3125 41.6875 C25.30881503 40.44145218 18.92270774 40.26211627 13 42 C12.6596875 41.34773438 12.319375 40.69546875 11.96875 40.0234375 C7.50583372 31.97594485 2.15500499 26.40405862 -6.73828125 23.46875 C-15.6868687 21.61412048 -24.1829187 22.75400436 -32.12109375 27.18359375 C-38.21731753 31.25158429 -42.62508887 37.20417905 -44.65625 44.2890625 C-45.1225971 47.96684527 -45.10547515 51.61333124 -45.0625 55.3125 C-45.05798828 56.05306641 -45.05347656 56.79363281 -45.04882812 57.55664062 C-45.03712175 59.37112899 -45.01918898 61.18557534 -45 63 C-45.6290625 63.14695312 -46.258125 63.29390625 -46.90625 63.4453125 C-54.87222602 65.53278212 -60.29497479 69.13795575 -66 75 C-69.43224962 66.17421526 -70.28158437 59.29273812 -66.46875 50.46875 C-62.96363625 44.57717582 -57.52520443 40.09887149 -51 38 C-48.6679198 37.92353835 -46.33154122 37.90856701 -44 38 C-44.32226562 37.29230469 -44.64453125 36.58460937 -44.9765625 35.85546875 C-47.63788389 28.43017893 -46.55563545 20.38016978 -43.32421875 13.31640625 C-38.68905699 5.20829143 -32.22286451 -0.00581537 -23.5625 -3.3125 C-14.91785426 -4.98076497 -7.93344019 -3.99012257 0 0 Z " fill="#60A2D7" transform="translate(69,19)"/>
<path d="M0 0 C0.33 0 0.66 0 1 0 C1 13.2 1 26.4 1 40 C-47.84 40 -96.68 40 -147 40 C-147 28.12 -147 16.24 -147 4 C-146.34 5.32 -145.68 6.64 -145 8 C-140.91196006 15.45030468 -136.55108154 20.41295375 -128.29798698 23.38319778 C-124.1536436 24.49558014 -120.04635022 24.41634088 -115.77954102 24.38818359 C-114.78821167 24.39344055 -113.79688232 24.39869751 -112.7755127 24.40411377 C-109.5181474 24.41725244 -106.26127601 24.40859656 -103.00390625 24.3984375 C-100.72761441 24.40046015 -98.4513232 24.40337318 -96.17503357 24.40713501 C-91.41146659 24.41155021 -86.64806875 24.40515367 -81.88452148 24.39111328 C-75.79397121 24.37403184 -69.70381789 24.38386138 -63.6132822 24.40183067 C-58.91453591 24.41269845 -54.2158829 24.40920824 -49.51713371 24.4014473 C-47.27216481 24.39945307 -45.02718731 24.40187711 -42.78222847 24.40888596 C-39.63787706 24.41654856 -36.49415812 24.40482822 -33.34985352 24.38818359 C-31.97255318 24.39729263 -31.97255318 24.39729263 -30.56742859 24.40658569 C-22.00842677 24.3231191 -14.54280835 22.2640935 -7.79296875 16.875 C-3.33127064 12.20917191 -1.06393096 6.28279229 0 0 Z " fill="#FEFEFE" transform="translate(147,108)"/>
<path d="M0 0 C0.33 0 0.66 0 1 0 C2.55940688 6.63347695 3.56987305 11.57531738 1 18 C0.67 18 0.34 18 0 18 C0 12.06 0 6.12 0 0 Z " fill="#F0F6FB" transform="translate(0,85)"/>
<path d="M0 0 C0.33 0 0.66 0 1 0 C1 5.28 1 10.56 1 16 C-2.26029242 9.47941517 -1.94661653 6.87041128 0 0 Z " fill="#EFF5FB" transform="translate(147,83)"/>
</svg>
