<?xml version="1.0" encoding="UTF-8"?>
<svg version="1.1" xmlns="http://www.w3.org/2000/svg" width="156" height="148">
<path d="M0 0 C51.48 0 102.96 0 156 0 C156 48.84 156 97.68 156 148 C104.52 148 53.04 148 0 148 C0 99.16 0 50.32 0 0 Z " fill="#FFA602" transform="translate(0,0)"/>
<path d="M0 0 C10.72766447 7.56404497 18.13140249 18.28329295 20.625 31.25 C22.05458044 45.54580438 19.75059943 57.71970225 11.14453125 69.55078125 C3.31242512 78.85238434 -7.30736308 85.3348144 -19.41015625 87.4140625 C-29.9078957 87.83320999 -39.57059783 83.95795441 -48 78 C-48.62519531 77.57074219 -49.25039063 77.14148438 -49.89453125 76.69921875 C-59.66681278 69.22110715 -64.8830963 57.85734037 -67 46 C-68.24949676 32.72009218 -64.93946861 21.38283863 -57.21484375 10.48046875 C-42.07947542 -7.76277808 -20.05524346 -11.89993395 0 0 Z " fill="#FFDA2C" transform="translate(97,34)"/>
<path d="M0 0 C24.75 0 49.5 0 75 0 C71.43924757 6.52804612 67.99086579 12.7789445 64 19 C58.73181485 18.4972706 54.83182595 15.7158066 50.4375 13 C48.93905629 12.07866826 47.43784098 11.16182563 45.93359375 10.25 C45.27415771 9.84265625 44.61472168 9.4353125 43.93530273 9.015625 C41.74490776 7.7690223 41.74490776 7.7690223 38 7 C38 14.92 38 22.84 38 31 C30.08 30.67 22.16 30.34 14 30 C14.76680865 33.06723462 15.49811957 35.26353187 16.84765625 38.0390625 C17.38422852 39.15667969 17.38422852 39.15667969 17.93164062 40.296875 C18.68936298 41.85681463 19.44717638 43.41671002 20.20507812 44.9765625 C20.7397168 46.0903125 20.7397168 46.0903125 21.28515625 47.2265625 C21.61394775 47.90283691 21.94273926 48.57911133 22.28149414 49.27587891 C23 51 23 51 23 53 C21.90300781 53.40992188 20.80601563 53.81984375 19.67578125 54.2421875 C18.22134314 54.78642886 16.76691667 55.33070133 15.3125 55.875 C14.59126953 56.14441406 13.87003906 56.41382813 13.12695312 56.69140625 C9.40053517 58.08668603 5.68675345 59.50202917 2 61 C2.3056115 64.12008024 3.04585765 65.04373531 5.36328125 67.25390625 C6.33652344 68.01574219 7.30976562 68.77757813 8.3125 69.5625 C9.27800781 70.32691406 10.24351563 71.09132813 11.23828125 71.87890625 C13.48117234 73.60152274 15.73048428 75.31268784 18 77 C16.71085044 79.82397877 15.34439504 81.90999245 13.1796875 84.12890625 C12.64472656 84.68900391 12.10976562 85.24910156 11.55859375 85.82617188 C10.43045812 86.98964354 9.30022525 88.15108512 8.16796875 89.31054688 C4.79696964 92.57121308 4.79696964 92.57121308 4 97 C5.25296875 97.26554687 6.5059375 97.53109375 7.796875 97.8046875 C9.44797774 98.16117559 11.09901607 98.51796206 12.75 98.875 C13.575 99.04902344 14.4 99.22304687 15.25 99.40234375 C16.04921875 99.57636719 16.8484375 99.75039062 17.671875 99.9296875 C18.4050293 100.08679199 19.13818359 100.24389648 19.89355469 100.40576172 C22.10428356 101.02941889 23.98236484 101.91143399 26 103 C25.5625 104.45833333 25.125 105.91666667 24.6875 107.375 C24.41679687 108.28121094 24.14609375 109.18742187 23.8671875 110.12109375 C23.29768668 112.01173385 22.7198141 113.89987635 22.1328125 115.78515625 C21.72675781 117.09806641 21.72675781 117.09806641 21.3125 118.4375 C21.06113281 119.24058594 20.80976563 120.04367188 20.55078125 120.87109375 C19.87476553 123.11756229 19.87476553 123.11756229 20 126 C20.54938232 125.90912109 21.09876465 125.81824219 21.66479492 125.72460938 C24.17170729 125.31229696 26.67957369 124.90609748 29.1875 124.5 C30.05181641 124.35691406 30.91613281 124.21382813 31.80664062 124.06640625 C35.90526577 123.40685738 39.83226024 122.79290734 44 123 C44.33885038 125.52019972 44.67120335 128.04098516 45 130.5625 C45.14308594 131.61920898 45.14308594 131.61920898 45.2890625 132.69726562 C45.86666417 137.17367855 46.09489383 141.48661238 46 146 C52.34771793 143.83600525 57.06362568 140.02195982 62.23046875 135.86328125 C65 134 65 134 69 134 C70.63239122 136.14176877 71.93635699 138.11429802 73.25 140.4375 C73.61351563 141.04916016 73.97703125 141.66082031 74.3515625 142.29101562 C77 146.79634633 77 146.79634633 77 148 C51.59 148 26.18 148 0 148 C0 99.16 0 50.32 0 0 Z " fill="#FFFDFB" transform="translate(0,0)"/>
<path d="M0 0 C24.42 0 48.84 0 74 0 C74 48.84 74 97.68 74 148 C50.57 148 27.14 148 3 148 C5.64 142.72 8.28 137.44 11 132 C14.3471942 133.33887768 16.61126858 134.24460733 19.4453125 136.1640625 C20.04730469 136.56367188 20.64929688 136.96328125 21.26953125 137.375 C22.51550546 138.21439315 23.76028259 139.05556575 25.00390625 139.8984375 C28.67712403 142.40236096 28.67712403 142.40236096 33 143 C33.33 135.41 33.66 127.82 34 120 C42.35344532 120.53158288 50.67889451 121.07978363 59 122 C57.3744941 116.1013839 55.49913528 110.5369431 52.8671875 105.0078125 C52.00890118 103.02060905 51.46378454 101.11069291 51 99 C58.18463616 95.86864309 65.36133302 93.73248117 73 92 C71.58862864 86.61293466 68.04824038 84.18880078 63.875 80.875 C62.57416663 79.83891549 61.27953215 78.79498488 59.9921875 77.7421875 C59.41839355 77.2869873 58.84459961 76.83178711 58.25341797 76.36279297 C57 75 57 75 57 72 C58.7578125 69.9140625 58.7578125 69.9140625 61.125 67.625 C61.94226563 66.8309375 62.75953125 66.036875 63.6015625 65.21875 C65.5228515 63.44140122 67.45800099 61.75859921 69.5 60.125 C72.22864806 58.17744696 72.22864806 58.17744696 73 55 C72.26136719 54.81824219 71.52273437 54.63648438 70.76171875 54.44921875 C63.81354225 52.72762483 56.89748164 50.91445849 50 49 C51.4897598 40.50836915 54.68571262 32.9105161 58 25 C56.54980469 25.19916016 56.54980469 25.19916016 55.0703125 25.40234375 C47.72265868 26.3990057 40.38719586 27.33949778 33 28 C31.79483714 23.10845663 31.66538566 18.19724878 31.4375 13.1875 C31.39431641 12.30384766 31.35113281 11.42019531 31.30664062 10.50976562 C31.20108464 8.34000377 31.10008929 6.1700209 31 4 C26.20178341 5.62114502 22.3327141 8.29276759 18.1875 11.125 C17.49462891 11.59292969 16.80175781 12.06085937 16.08789062 12.54296875 C14.38908895 13.69112437 12.69415136 14.84499367 11 16 C6.74561563 14.49402323 5.40579386 11.83252242 3.25 8 C2.63640625 6.9275 2.0228125 5.855 1.390625 4.75 C0 2 0 2 0 0 Z " fill="#FFFDFB" transform="translate(82,0)"/>
<path d="M0 0 C12.23380728 0.61169036 22.21236144 5.52620567 31 14 C33.24490891 16.53519886 35.16483698 19.15752352 37 22 C37.721875 23.0725 38.44375 24.145 39.1875 25.25 C45.22642301 36.39295 45.50707817 49.15884208 42 61.0625 C37.88600332 73.77221319 29.81868363 82.87493893 18.3046875 89.56640625 C11.93574073 92.75087964 6.0921992 93.84910214 -1 94 C1.87370089 92.0841994 4.34495857 91.07476121 7.5625 89.875 C19.90719208 84.7611964 28.16885446 76.06553539 33.375 63.8125 C37.43453817 52.65744426 37.20443876 40.04271964 32.8125 29.01953125 C26.10408169 14.63653656 16.45396733 7.19642456 1.8359375 1.6640625 C1.23007813 1.44492187 0.62421875 1.22578125 0 1 C0 0.67 0 0.34 0 0 Z " fill="#FFC900" transform="translate(81,27)"/>
</svg>
